<mxfile host="app.diagrams.net" agent="Mozilla/5.0 (Macintosh; Intel Mac OS X 10_15_7) AppleWebKit/537.36 (KHTML, like Gecko) Chrome/131.0.0.0 Safari/537.36 Edg/131.0.0.0" version="25.0.3">
  <diagram name="Page-1" id="Pg3Aq4iM_f8W9bcOP7NJ">
    <mxGraphModel dx="1079" dy="770" grid="1" gridSize="10" guides="1" tooltips="1" connect="1" arrows="1" fold="1" page="1" pageScale="1" pageWidth="1169" pageHeight="827" math="0" shadow="0">
      <root>
        <mxCell id="0" />
        <mxCell id="1" parent="0" />
        <mxCell id="1zctyJzVivUr_2Penubg-48" value="" style="rounded=0;whiteSpace=wrap;html=1;fillColor=none;" vertex="1" parent="1">
          <mxGeometry x="8" y="20" width="1140" height="470" as="geometry" />
        </mxCell>
        <mxCell id="1zctyJzVivUr_2Penubg-22" value="&lt;font style=&quot;font-size: 18px;&quot;&gt;USER&lt;/font&gt;" style="rounded=0;whiteSpace=wrap;html=1;" vertex="1" parent="1">
          <mxGeometry x="38" y="50" width="120" height="60" as="geometry" />
        </mxCell>
        <mxCell id="1zctyJzVivUr_2Penubg-46" value="" style="edgeStyle=orthogonalEdgeStyle;rounded=0;orthogonalLoop=1;jettySize=auto;html=1;entryX=0.5;entryY=1;entryDx=0;entryDy=0;" edge="1" parent="1" source="1zctyJzVivUr_2Penubg-45" target="1zctyJzVivUr_2Penubg-23">
          <mxGeometry relative="1" as="geometry">
            <mxPoint x="620" y="190" as="sourcePoint" />
          </mxGeometry>
        </mxCell>
        <mxCell id="1zctyJzVivUr_2Penubg-23" value="&lt;font style=&quot;font-size: 18px;&quot;&gt;AGENT ORCHESTRATOR&lt;/font&gt;" style="rounded=0;whiteSpace=wrap;html=1;" vertex="1" parent="1">
          <mxGeometry x="498" y="50" width="170" height="60" as="geometry" />
        </mxCell>
        <mxCell id="1zctyJzVivUr_2Penubg-33" value="" style="endArrow=none;html=1;rounded=0;" edge="1" parent="1">
          <mxGeometry width="50" height="50" relative="1" as="geometry">
            <mxPoint x="148" y="170" as="sourcePoint" />
            <mxPoint x="1048" y="170" as="targetPoint" />
          </mxGeometry>
        </mxCell>
        <mxCell id="1zctyJzVivUr_2Penubg-40" value="" style="group" vertex="1" connectable="0" parent="1">
          <mxGeometry x="718" y="170" width="160" height="140" as="geometry" />
        </mxCell>
        <mxCell id="1zctyJzVivUr_2Penubg-34" value="&lt;span style=&quot;font-size: 18px;&quot;&gt;PROGRAMMING TUTOR&lt;/span&gt;" style="rounded=0;whiteSpace=wrap;html=1;" vertex="1" parent="1zctyJzVivUr_2Penubg-40">
          <mxGeometry y="80" width="160" height="60" as="geometry" />
        </mxCell>
        <mxCell id="1zctyJzVivUr_2Penubg-35" value="" style="endArrow=classic;html=1;rounded=0;entryX=0.5;entryY=0;entryDx=0;entryDy=0;" edge="1" parent="1zctyJzVivUr_2Penubg-40" target="1zctyJzVivUr_2Penubg-34">
          <mxGeometry width="50" height="50" relative="1" as="geometry">
            <mxPoint x="80" as="sourcePoint" />
            <mxPoint x="150" as="targetPoint" />
          </mxGeometry>
        </mxCell>
        <mxCell id="1zctyJzVivUr_2Penubg-41" value="" style="group" vertex="1" connectable="0" parent="1">
          <mxGeometry x="968" y="170" width="160" height="140" as="geometry" />
        </mxCell>
        <mxCell id="1zctyJzVivUr_2Penubg-37" value="&lt;span style=&quot;font-size: 18px;&quot;&gt;WIKIPEDIA RESEARCHER&lt;/span&gt;" style="rounded=0;whiteSpace=wrap;html=1;" vertex="1" parent="1zctyJzVivUr_2Penubg-41">
          <mxGeometry y="80" width="160" height="60" as="geometry" />
        </mxCell>
        <mxCell id="1zctyJzVivUr_2Penubg-38" value="" style="endArrow=classic;html=1;rounded=0;entryX=0.5;entryY=0;entryDx=0;entryDy=0;" edge="1" parent="1zctyJzVivUr_2Penubg-41" target="1zctyJzVivUr_2Penubg-37">
          <mxGeometry width="50" height="50" relative="1" as="geometry">
            <mxPoint x="80" as="sourcePoint" />
            <mxPoint x="150" as="targetPoint" />
          </mxGeometry>
        </mxCell>
        <mxCell id="1zctyJzVivUr_2Penubg-42" value="" style="group" vertex="1" connectable="0" parent="1">
          <mxGeometry x="503" y="170" width="160" height="140" as="geometry" />
        </mxCell>
        <mxCell id="1zctyJzVivUr_2Penubg-31" value="&lt;span style=&quot;font-size: 18px;&quot;&gt;PERSONAL FINANCE&lt;/span&gt;" style="rounded=0;whiteSpace=wrap;html=1;" vertex="1" parent="1zctyJzVivUr_2Penubg-42">
          <mxGeometry y="80" width="160" height="60" as="geometry" />
        </mxCell>
        <mxCell id="1zctyJzVivUr_2Penubg-32" value="" style="endArrow=classic;html=1;rounded=0;entryX=0.5;entryY=0;entryDx=0;entryDy=0;" edge="1" parent="1zctyJzVivUr_2Penubg-42" target="1zctyJzVivUr_2Penubg-31">
          <mxGeometry width="50" height="50" relative="1" as="geometry">
            <mxPoint x="80" as="sourcePoint" />
            <mxPoint x="150" as="targetPoint" />
          </mxGeometry>
        </mxCell>
        <mxCell id="1zctyJzVivUr_2Penubg-45" value="" style="shape=waypoint;sketch=0;size=6;pointerEvents=1;points=[];fillColor=default;resizable=0;rotatable=0;perimeter=centerPerimeter;snapToPoint=1;rounded=0;" vertex="1" parent="1zctyJzVivUr_2Penubg-42">
          <mxGeometry x="70" y="-10" width="20" height="20" as="geometry" />
        </mxCell>
        <mxCell id="1zctyJzVivUr_2Penubg-43" value="" style="group" vertex="1" connectable="0" parent="1">
          <mxGeometry x="288" y="170" width="160" height="140" as="geometry" />
        </mxCell>
        <mxCell id="1zctyJzVivUr_2Penubg-28" value="&lt;span style=&quot;font-size: 18px;&quot;&gt;EQUITY RESEARCH TEAM&lt;/span&gt;" style="rounded=0;whiteSpace=wrap;html=1;" vertex="1" parent="1zctyJzVivUr_2Penubg-43">
          <mxGeometry y="80" width="160" height="60" as="geometry" />
        </mxCell>
        <mxCell id="1zctyJzVivUr_2Penubg-30" value="" style="endArrow=classic;html=1;rounded=0;entryX=0.5;entryY=0;entryDx=0;entryDy=0;" edge="1" parent="1zctyJzVivUr_2Penubg-43" target="1zctyJzVivUr_2Penubg-28">
          <mxGeometry width="50" height="50" relative="1" as="geometry">
            <mxPoint x="80" as="sourcePoint" />
            <mxPoint x="150" as="targetPoint" />
          </mxGeometry>
        </mxCell>
        <mxCell id="1zctyJzVivUr_2Penubg-44" value="" style="group" vertex="1" connectable="0" parent="1">
          <mxGeometry x="68" y="170" width="160" height="140" as="geometry" />
        </mxCell>
        <mxCell id="1zctyJzVivUr_2Penubg-25" value="&lt;span style=&quot;font-size: 18px;&quot;&gt;TOP NEWS TEAM&lt;/span&gt;" style="rounded=0;whiteSpace=wrap;html=1;" vertex="1" parent="1zctyJzVivUr_2Penubg-44">
          <mxGeometry y="80" width="160" height="60" as="geometry" />
        </mxCell>
        <mxCell id="1zctyJzVivUr_2Penubg-39" value="" style="endArrow=classic;html=1;rounded=0;entryX=0.5;entryY=0;entryDx=0;entryDy=0;" edge="1" parent="1zctyJzVivUr_2Penubg-44">
          <mxGeometry width="50" height="50" relative="1" as="geometry">
            <mxPoint x="79.5" as="sourcePoint" />
            <mxPoint x="79.5" y="80" as="targetPoint" />
          </mxGeometry>
        </mxCell>
        <mxCell id="1zctyJzVivUr_2Penubg-47" value="" style="endArrow=classic;startArrow=classic;html=1;rounded=0;entryX=0;entryY=0.5;entryDx=0;entryDy=0;exitX=1;exitY=0.5;exitDx=0;exitDy=0;" edge="1" parent="1" source="1zctyJzVivUr_2Penubg-22" target="1zctyJzVivUr_2Penubg-23">
          <mxGeometry width="50" height="50" relative="1" as="geometry">
            <mxPoint x="270" y="105" as="sourcePoint" />
            <mxPoint x="320" y="55" as="targetPoint" />
          </mxGeometry>
        </mxCell>
        <mxCell id="1zctyJzVivUr_2Penubg-52" value="ENVIRONMENT" style="ellipse;shape=cloud;whiteSpace=wrap;html=1;" vertex="1" parent="1">
          <mxGeometry x="980" y="30" width="148" height="80" as="geometry" />
        </mxCell>
      </root>
    </mxGraphModel>
  </diagram>
</mxfile>
